<svg width="50" height="50" viewBox="0 0 50 50" fill="none" xmlns="http://www.w3.org/2000/svg">
<path d="M32.1685 18.0531C32.1685 9.01318 20.1332 10.8892 20.0215 10.3848C19.9657 9.83464 19.7981 9.00936 19.5189 8.59671C19.2955 8.13822 18.9325 7.77143 18.4299 7.49634C17.9831 7.22124 17.3408 7.08369 16.5031 7.08369C15.442 7.08369 14.5484 7.35879 13.8224 7.90898C13.4873 7.17539 13.3198 6.51058 13.3198 5.91454C13.3198 5.18096 13.4594 4.47029 13.7386 3.78255C14.0737 3.04897 14.5763 2.40708 15.2465 1.85689C15.9167 1.3067 16.7544 0.871136 17.7597 0.550191C18.8208 0.183397 20.1053 0 21.6132 0C24.9641 0 27.561 0.825285 29.404 2.47585C31.247 4.12642 32.1685 6.39596 32.1685 9.28445C32.1685 25.1843 32.1685 34.0987 32.1685 49.9985C30.6606 49.9985 29.1806 49.9068 27.7286 49.7234C26.3324 49.54 25.0478 49.1732 23.875 48.623C22.7581 48.027 21.8645 47.1558 21.1943 46.0096C20.5242 44.8634 20.1891 43.3274 20.1891 41.4018L20.0215 14.0642C20.0215 14.0642 32.1685 14.2705 32.1685 22.1795C32.1685 30.0885 32.1685 18.0531 32.1685 18.0531ZM12.0632 49.9985H11.2255C9.77341 49.9985 8.37721 49.8839 7.03685 49.6546C5.6965 49.4254 4.49577 49.0127 3.43466 48.4167C2.42939 47.8207 1.59167 46.9954 0.921493 45.9408C0.307164 44.8863 0 43.5108 0 41.8144V0.0687769H1.34035C2.68071 0.0687769 3.99314 0.206324 5.27764 0.481418C6.56215 0.710663 7.70703 1.14623 8.7123 1.78812C9.71756 2.38416 10.5274 3.20944 11.1417 4.26397C11.756 5.3185 12.0632 6.67105 12.0632 8.32162V49.9985Z" fill="#404142"/>
<path d="M33.6289 22.4217H40.9888C40.9888 23.4762 40.8786 24.4391 40.658 25.3102C40.4927 26.1813 40.1343 26.9608 39.583 27.6485C39.0868 28.2904 38.3977 28.7947 37.5156 29.1615C36.6335 29.5283 35.5034 29.7117 34.1251 29.7117H33.6289V22.4217ZM50.0026 43.3977C50.0026 44.1771 49.8372 44.9566 49.5064 45.736C49.1757 46.5154 48.6519 47.2261 47.9352 47.868C47.2185 48.464 46.3365 48.9684 45.289 49.381C44.2415 49.7936 43.0011 50 41.5677 50C40.5202 50 39.5003 49.8624 38.508 49.5873C37.5156 49.2664 36.6335 48.8308 35.8617 48.2806C35.145 47.7304 34.5386 47.0885 34.0424 46.3549C33.6014 45.6214 33.3809 44.7961 33.3809 43.8791C33.3809 43.5123 33.3809 43.1914 33.3809 42.9163C33.436 42.5953 33.5463 42.2515 33.7116 41.8847C34.4283 42.4348 35.3104 42.7099 36.3579 42.7099C37.1848 42.7099 37.874 42.5036 38.4253 42.091C38.9766 41.6325 39.2522 40.9677 39.2522 40.0965V36.7266C39.6933 36.6349 40.2446 36.5891 40.9061 36.5891C41.678 36.5891 42.5876 36.6808 43.6351 36.8642C44.6826 37.0017 45.6749 37.3227 46.6121 37.827C47.5493 38.3314 48.3487 39.042 49.0103 39.959C49.6718 40.8301 50.0026 41.9764 50.0026 43.3977ZM50.0026 7.97923C50.0026 9.4464 49.6718 10.6156 49.0103 11.4867C48.3487 12.3578 47.5493 13.0456 46.6121 13.5499C45.6749 14.0542 44.6826 14.3981 43.6351 14.5815C42.5876 14.7191 41.678 14.7878 40.9061 14.7878C40.2446 14.7878 39.6933 14.742 39.2522 14.6503V11.4867C39.2522 10.5697 38.9766 9.88197 38.4253 9.42348C37.9291 8.91913 37.24 8.66696 36.3579 8.66696C35.3104 8.66696 34.4283 8.94206 33.7116 9.49225C33.5463 9.12546 33.436 8.80451 33.3809 8.52942C33.3809 8.20847 33.3809 7.86461 33.3809 7.49781C33.3809 6.94762 33.5187 6.32866 33.7943 5.64092C34.1251 4.90734 34.5937 4.24252 35.2002 3.64649C35.8617 3.0046 36.6887 2.47734 37.681 2.06469C38.7285 1.6062 39.9689 1.37695 41.4023 1.37695C42.56 1.37695 43.6626 1.53743 44.7101 1.85837C45.7576 2.17931 46.6672 2.6378 47.4391 3.23384C48.2109 3.82988 48.8173 4.54054 49.2584 5.36583C49.7545 6.14526 50.0026 7.0164 50.0026 7.97923Z" fill="#404142"/>
<path d="M12.8164 22.1465H19.5147C19.5147 24.0263 19.1012 25.6081 18.2743 26.8919C17.4473 28.1298 15.7659 28.7488 13.2299 28.7488H12.8164V22.1465Z" fill="#404142"/>
</svg>
