<svg width="30" height="30" viewBox="0 0 30 30" fill="none" xmlns="http://www.w3.org/2000/svg">
<g clip-path="url(#clip0_1152_230)">
<path d="M28.6741 13.7344L16.2661 1.32707C15.5517 0.61233 14.3928 0.61233 13.6778 1.32707L11.1015 3.90398L14.3696 7.17212C15.1292 6.91542 16.0002 7.08769 16.6054 7.69326C17.2144 8.30254 17.3851 9.18089 17.1219 9.94326L20.2722 13.0933C21.0346 12.8304 21.9136 13.0005 22.5222 13.6101C23.3727 14.4606 23.3727 15.8387 22.5222 16.6899C21.6711 17.5407 20.2929 17.5407 19.4415 16.6899C18.8019 16.0497 18.6436 15.1094 18.968 14.3214L16.0299 11.3836V19.1146C16.2371 19.2173 16.4328 19.354 16.6054 19.5266C17.4559 20.3771 17.4559 21.7552 16.6054 22.6067C15.7549 23.4569 14.3758 23.4569 13.5259 22.6067C12.6754 21.7549 12.6754 20.3768 13.5259 19.5266C13.7362 19.3166 13.9796 19.1576 14.2394 19.0512V11.2481C13.9796 11.1417 13.7369 10.9843 13.5259 10.7727C12.8817 10.1288 12.7268 9.18305 13.0571 8.39192L9.83532 5.16955L1.32707 13.6769C0.61233 14.3922 0.61233 15.5511 1.32707 16.2658L13.7356 28.6735C14.4501 29.3882 15.6086 29.3882 16.324 28.6735L28.6741 16.3234C29.3888 15.6086 29.3888 14.4491 28.6741 13.7344Z" fill="#F05133"/>
</g>
<defs>
<clipPath id="clip0_1152_230">
<rect width="30" height="30" fill="white"/>
</clipPath>
</defs>
</svg>
